<svg id="Layer_1" data-name="Layer 1" xmlns="http://www.w3.org/2000/svg" width="80" height="80" viewBox="0 0 80 80"><title>Artboard 1</title><path d="M73.9,45.1a8.7,8.7,0,0,0-3.6-7v-.5A30.4,30.4,0,0,0,42,7.4a2.3,2.3,0,0,0-.7-3.3,2.4,2.4,0,0,0-3.3.7,2.4,2.4,0,0,0,0,2.6A30.3,30.3,0,0,0,9.8,37.6v.5A8.5,8.5,0,0,0,7.6,49.9a8.7,8.7,0,0,0,5,3.4l6.9,22.2a1.1,1.1,0,0,0,1.1.8h40a1.1,1.1,0,0,0,1.1-.8l7.1-22.6A8.5,8.5,0,0,0,73.9,45.1ZM15.2,53.5a8.2,8.2,0,0,0,4.7-1.9l6.4,22.3H21.5Zm33.1-1.6a8.5,8.5,0,0,0,9.2.6L52.4,73.9H46.2Zm-4.6,22H37.4L34.2,51.2a8.3,8.3,0,0,0,11.7-.1ZM31.8,51.8,35,73.9H28.8L22.7,52.6A8.6,8.6,0,0,0,31.8,51.8ZM59.7,73.9H54.8l5.3-22.2a8.5,8.5,0,0,0,5.3,1.8H66Zm5.7-22.8a6,6,0,0,1-5-2.7,1.3,1.3,0,0,0-1.7-.3c-.1.1-.3.2-.3.3A6,6,0,0,1,50,50.1a5.1,5.1,0,0,1-2.2-2.6,1.2,1.2,0,0,0-1.6-.6,1.3,1.3,0,0,0-.7.6,6,6,0,0,1-11,0,1.2,1.2,0,0,0-1.6-.6,1.3,1.3,0,0,0-.7.6,5.9,5.9,0,0,1-7.9,3.1,5.8,5.8,0,0,1-2.7-2.2,1.2,1.2,0,0,0-1.7-.2l-.3.2a5.9,5.9,0,0,1-8.3,1.7,6,6,0,0,1-1.8-8.3,6.7,6.7,0,0,1,2.1-2,1.3,1.3,0,0,0,.6-1V37.6a27.8,27.8,0,1,1,55.6,0v1.2a1.3,1.3,0,0,0,.6,1,6.1,6.1,0,0,1,2.2,8.3A5.8,5.8,0,0,1,65.4,51.1Z" fill="#eb2940" stroke="#eb2940" stroke-linecap="round" stroke-miterlimit="10" stroke-width="1.82"/><polygon points="47.2 51.1 59 51.6 53.1 75.1 45.3 74.3 47.2 51.1" fill="#eb2940"/><polygon points="32.9 51.1 21.4 51.6 27.8 75.1 36.1 74.6 32.9 51.1" fill="#eb2940"/><circle cx="36.4" cy="20.8" r="1.2" fill="#eb2940" stroke="#eb2940" stroke-miterlimit="10" stroke-width="0.61"/><circle cx="43.6" cy="20.8" r="1.2" fill="#eb2940" stroke="#eb2940" stroke-miterlimit="10" stroke-width="0.61"/><path d="M43.8,23.7a3.8,3.8,0,1,1-7.6,0" fill="none" stroke="#eb2940" stroke-miterlimit="10" stroke-width="2.42"/></svg>