<svg xmlns="http://www.w3.org/2000/svg" width="80" height="80" viewBox="0 0 80 80"><path fill="#eb2940" stroke="#eb2940" stroke-linecap="round" stroke-miterlimit="10" stroke-width="1.82" d="M73.9 45.1a8.7 8.7 0 0 0-3.6-7v-.5A30.4 30.4 0 0 0 42 7.4a2.3 2.3 0 0 0-.7-3.3 2.4 2.4 0 0 0-3.3.7 2.4 2.4 0 0 0 0 2.6A30.3 30.3 0 0 0 9.8 37.6v.5a8.5 8.5 0 0 0-2.2 11.8 8.7 8.7 0 0 0 5 3.4l6.9 22.2a1.1 1.1 0 0 0 1.1.8h40a1.1 1.1 0 0 0 1.1-.8l7.1-22.6a8.5 8.5 0 0 0 5.1-7.8zm-58.7 8.4a8.2 8.2 0 0 0 4.7-1.9l6.4 22.3h-4.8zm33.1-1.6a8.5 8.5 0 0 0 9.2.6l-5.1 21.4h-6.2zm-4.6 22h-6.3l-3.2-22.7a8.3 8.3 0 0 0 11.7-.1zM31.8 51.8L35 73.9h-6.2l-6.1-21.3a8.6 8.6 0 0 0 9.1-.8zm27.9 22.1h-4.9l5.3-22.2a8.5 8.5 0 0 0 5.3 1.8h.6zm5.7-22.8a6 6 0 0 1-5-2.7 1.3 1.3 0 0 0-1.7-.3c-.1.1-.3.2-.3.3a6 6 0 0 1-8.4 1.7 5.1 5.1 0 0 1-2.2-2.6 1.2 1.2 0 0 0-1.6-.6 1.3 1.3 0 0 0-.7.6 6 6 0 0 1-11 0 1.2 1.2 0 0 0-1.6-.6 1.3 1.3 0 0 0-.7.6 5.9 5.9 0 0 1-7.9 3.1 5.8 5.8 0 0 1-2.7-2.2 1.2 1.2 0 0 0-1.7-.2l-.3.2a5.9 5.9 0 0 1-8.3 1.7 6 6 0 0 1-1.8-8.3 6.7 6.7 0 0 1 2.1-2 1.3 1.3 0 0 0 .6-1v-1.2a27.8 27.8 0 1 1 55.6 0v1.2a1.3 1.3 0 0 0 .6 1 6.1 6.1 0 0 1 2.2 8.3 5.8 5.8 0 0 1-5.2 3z"/><path fill="#eb2940" d="M47.2 51.1l11.8.5-5.9 23.5-7.8-.8 1.9-23.2zm-14.3 0l-11.5.5 6.4 23.5 8.3-.5-3.2-23.5z"/><circle cx="36.4" cy="20.8" r="1.2" fill="#eb2940" stroke="#eb2940" stroke-miterlimit="10" stroke-width=".61"/><circle cx="43.6" cy="20.8" r="1.2" fill="#eb2940" stroke="#eb2940" stroke-miterlimit="10" stroke-width=".61"/><path fill="none" stroke="#eb2940" stroke-miterlimit="10" stroke-width="2.42" d="M43.8 23.7a3.8 3.8 0 1 1-7.6 0"/></svg>