<svg xmlns="http://www.w3.org/2000/svg" width="100" height="200" viewBox="0 0 100 200"><path fill="none" stroke="#eb2940" stroke-linecap="round" stroke-linejoin="round" stroke-width="7.54" d="M19.1 62.7l15.6-11.4a6.7 6.7 0 0 0 1.6-9.3l-.2-.3-13.9-17.8c-1.8-1.6-.3-4 2.4-4h12l-1.1-3.2a4.8 4.8 0 0 1 2.9-6.2 4.1 4.1 0 0 1 1.6-.3h20a4.8 4.8 0 0 1 4.8 4.9 4.5 4.5 0 0 1-.3 1.6l-1.1 3.2h12c2.7 0 4.2 2.4 2.4 4L63.9 41.7a6.7 6.7 0 0 0 1.1 9.4l.3.2 15.6 11.4c4.6 2.5 6.4 7.1 4.6 11.2L52.2 188.4a2.5 2.5 0 0 1-3.3 1.1 2 2 0 0 1-1.1-1.1L14.5 73.9c-1.8-4.1 0-8.7 4.6-11.2zM57.2 34l6.2-14.1m-26.8 0L42.8 34"/><path fill="none" stroke="#eb2940" stroke-linecap="round" stroke-linejoin="round" stroke-width="7.54" d="M37.9 46.4A26.5 26.5 0 0 0 50 48.8a26.5 26.5 0 0 0 12.1-2.4M41.5 164.1a11.3 11.3 0 0 1 8.5-3.5 11.3 11.3 0 0 1 8.5 3.5m1.1-100.8l-7.2-14.5m-4.8 0l-7.2 14.5m-9.2 13.2s13.7 6.9 22.2 1.7m-22.2 9.7s13.7 6.8 22.2 1.7"/></svg>